<?xml version="1.0" encoding="UTF-8"?>
<svg version="1.1" xmlns="http://www.w3.org/2000/svg" width="2088" height="1464">
<path d="M0 0 C3.03743674 1.13651969 6.07816869 2.26402445 9.11967468 3.38960266 C10.54368469 3.91911007 11.96616017 4.45276558 13.38694763 4.99085999 C15.34663037 5.73282342 17.31106272 6.46058566 19.27711487 7.18547058 C20.93311707 7.80591248 20.93311707 7.80591248 22.62257385 8.43888855 C31.50723609 10.86461078 38.97884018 8.06043385 46.72633362 3.69328308 C56.5104633 -2.56855991 65.67617508 -10.22879668 73.71852112 -18.61921692 C77.95718671 -22.9534915 82.60158142 -26.83175049 88.84352112 -27.36921692 C94.80481429 -26.93673094 98.81665242 -22.93721288 102.64430237 -18.67781067 C105.5011248 -15.08462351 107.41475863 -12.35593098 107.84352112 -7.68171692 C104.15329389 10.07415904 89.8083394 26.82548112 79.37037659 41.21037292 C77.79031723 43.39173405 76.22404821 45.58250156 74.65992737 47.77531433 C67.7324196 57.46318837 60.60262134 66.97837765 53.32203674 76.40324402 C51.97674964 78.14571958 50.63555835 79.89121964 49.29664612 81.63859558 C39.01613211 95.04357954 28.62047251 108.35982093 18.17018127 121.63273621 C15.89265909 124.52637131 13.61824571 127.4224486 11.34352112 130.31828308 C8.63013368 133.77255659 5.91626758 137.22644356 3.19898987 140.67765808 C-2.54827156 147.98006084 -8.26332614 155.30686756 -13.96434021 162.64543152 C-17.9501655 167.77387822 -21.95475128 172.88700886 -25.97288513 177.99015808 C-29.7190362 182.75202941 -33.439521 187.53360295 -37.15647888 192.31828308 C-41.3086261 197.66316373 -45.46995371 203.00028561 -49.65647888 208.31828308 C-50.99912438 210.02633368 -52.34135813 211.7347066 -53.68333435 213.44328308 C-54.73126006 214.77706987 -55.77983102 216.1103498 -56.82884216 217.44328308 C-63.1202317 225.44513872 -69.34647008 233.45908712 -75.19676208 241.79020691 C-79.62654131 248.06047191 -84.31810997 254.12851431 -88.98753357 260.22111511 C-93.48695753 266.101164 -97.91127522 272.02921423 -102.28147888 278.00578308 C-108.4974526 286.49250442 -114.91423868 294.80787698 -121.40647888 303.08439636 C-124.33360294 306.82088982 -127.24428771 310.57014755 -130.15647888 314.31828308 C-133.67522146 318.84540378 -137.19617907 323.37072303 -140.72679138 327.88859558 C-146.71740299 335.56042215 -152.65609107 343.26363443 -158.4750824 351.0665741 C-162.6816048 356.70321711 -166.94721768 362.2934795 -171.21897888 367.88078308 C-175.80248124 373.87848196 -180.34718482 379.89690165 -184.78147888 386.00578308 C-188.7174342 391.42445624 -192.77920943 396.73151068 -196.90647888 402.00578308 C-204.46521491 411.67118908 -211.87731242 421.4404908 -219.15647888 431.31828308 C-219.63552673 431.96732605 -220.11457458 432.61636902 -220.60813904 433.28507996 C-233.50868354 450.89367794 -236.10580497 465.79829391 -233.03147888 487.13078308 C-228.20149118 517.65630537 -215.17301602 544.86162036 -195.15647888 568.31828308 C-194.68629333 568.87354675 -194.21610779 569.42881042 -193.73167419 570.00090027 C-174.15453322 592.86519829 -147.50980092 608.78354564 -117.15647888 611.31828308 C-89.26151442 613.1302921 -62.98274957 606.03917411 -41.70091248 587.44523621 C-40.17570125 586.0805489 -38.66436302 584.70206153 -37.15647888 583.31828308 C-36.36757263 582.61187683 -35.57866638 581.90547058 -34.76585388 581.17765808 C-5.8271215 553.90446425 4.85219684 516.53309 8.84352112 478.31828308 C24.02707545 476.62599839 33.44965971 479.30487864 46.57008362 486.86906433 C54.66395156 491.49170181 63.26381881 494.79094214 71.90992737 498.21965027 C93.07327146 506.68146459 93.07327146 506.68146459 97.84352112 515.31828308 C101.03134138 528.92110516 93.07564393 544.8732774 86.19020081 556.22160339 C73.88940004 575.37303141 56.06279533 591.89704589 37.84352112 605.31828308 C36.76728215 606.15648255 35.69436936 606.99896972 34.62477112 607.84562683 C21.82713622 617.95750618 8.28124659 626.73020751 -6.15647888 634.31828308 C-6.85660095 634.68808289 -7.55672302 635.05788269 -8.27806091 635.43888855 C-29.51684308 646.48727332 -52.56930842 653.49054051 -76.15647888 657.31828308 C-77.62117615 657.56167419 -77.62117615 657.56167419 -79.11546326 657.8099823 C-109.64520802 662.63439891 -142.51380533 661.97473699 -173.15647888 658.31828308 C-174.78263123 658.12492371 -174.78263123 658.12492371 -176.44163513 657.92765808 C-213.39574847 653.34551774 -243.72159088 643.39245278 -274.71214294 622.92765808 C-278.22028784 620.61786072 -281.75056911 618.3430539 -285.28147888 616.06828308 C-292.75621345 611.23925434 -300.2075951 606.37454359 -307.65647888 601.50578308 C-308.75492126 600.78809753 -309.85336365 600.07041199 -310.98509216 599.33097839 C-312.57039734 598.29408875 -312.57039734 598.29408875 -314.18772888 597.23625183 C-315.20351013 596.57544617 -316.21929138 595.9146405 -317.26585388 595.23381042 C-319.12988092 593.99857764 -320.97558132 592.73500581 -322.79710388 591.43791199 C-323.98046326 590.5994574 -323.98046326 590.5994574 -325.18772888 589.74406433 C-326.2018988 589.00216858 -326.2018988 589.00216858 -327.23655701 588.24528503 C-329.12467884 587.12172338 -329.12467884 587.12172338 -331.28123474 587.56828308 C-339.17748351 590.72637138 -345.11431848 600.89827583 -350.19944763 607.50578308 C-353.29731338 611.52643953 -356.50290378 615.45447568 -359.71897888 619.38078308 C-363.70515555 624.25401287 -367.60586553 629.1741696 -371.40647888 634.19328308 C-375.00766865 638.90387164 -378.69320963 643.44855383 -382.7888031 647.74015808 C-385.17803512 650.25525973 -385.17803512 650.25525973 -387.12864685 652.95378113 C-390.63976822 657.25256698 -393.70322788 660.39460355 -399.33909607 661.12467957 C-404.16532552 661.42250739 -408.9582242 661.19395233 -413.78147888 660.94328308 C-415.47014832 660.89303471 -417.15896241 660.84742273 -418.84788513 660.80656433 C-422.95436931 660.69722754 -427.05380307 660.52523165 -431.15647888 660.31828308 C-435.15971198 652.43208569 -435.15971198 652.43208569 -435.14866638 648.62687683 C-433.84344798 645.58993165 -432.19438569 643.07995585 -430.28147888 640.38078308 C-429.88146667 639.81577087 -429.48145447 639.25075867 -429.06932068 638.66862488 C-424.8067708 632.71254218 -420.2588393 626.98392304 -415.69700623 621.25627136 C-387.13154686 588.88433021 -387.13154686 588.88433021 -370.80101013 550.29875183 C-371.25280282 546.51064393 -372.47485286 545.18068666 -375.03147888 542.38078308 C-385.49800734 530.2297977 -393.34054395 516.26349426 -401.15647888 502.31828308 C-401.5415863 501.64136414 -401.92669373 500.96444519 -402.32347107 500.26701355 C-425.95971687 458.55415081 -439.63830711 411.50677222 -445.40647888 364.13078308 C-445.48965363 363.44935242 -445.57282837 362.76792175 -445.65852356 362.06584167 C-452.29788642 306.91498993 -449.34553429 250.31706992 -432.15647888 197.31828308 C-431.88754822 196.47330261 -431.61861755 195.62832214 -431.34153748 194.75773621 C-411.06005417 131.5936304 -368.05787521 67.9639307 -315.15647888 27.31828308 C-314.0569221 26.41069087 -312.96080353 25.49892354 -311.86741638 24.58390808 C-270.33345503 -9.93326231 -218.67067569 -30.25025464 -165.15647888 -35.68171692 C-164.09429138 -35.79386536 -163.03210388 -35.90601379 -161.93772888 -36.02156067 C-104.19664677 -41.13697207 -52.89786559 -19.83648686 0 0 Z M-179.15647888 34.31828308 C-180.09620544 35.15617371 -181.03593201 35.99406433 -182.00413513 36.85734558 C-233.58805033 84.31253355 -241.3132301 178.6521026 -244.30209351 244.52767944 C-244.42957344 247.74538219 -244.54609797 250.96322985 -244.65647888 254.18156433 C-244.71849739 255.97408882 -244.71849739 255.97408882 -244.7817688 257.80282593 C-245.2008108 270.21422852 -245.58120798 282.62643053 -245.83688831 295.04233551 C-245.9068069 298.42005582 -245.9855285 301.79703221 -246.08592224 305.17399597 C-246.72259351 326.87016279 -245.57326312 348.01552001 -241.15647888 369.31828308 C-225.42893601 361.99987387 -213.35400335 346.69452994 -203.53538513 332.92765808 C-203.10516052 332.32473938 -202.67493591 331.72182068 -202.23167419 331.10063171 C-197.25180177 324.08886675 -192.45326436 316.95591404 -187.65647888 309.81828308 C-182.45601571 302.07997852 -177.23826308 294.35809841 -171.84007263 286.75578308 C-171.25383118 285.92560669 -171.25383118 285.92560669 -170.65574646 285.07865906 C-167.03068773 280.00934923 -163.02400574 275.30049408 -158.94163513 270.59953308 C-156.07202321 267.25450035 -153.3574411 263.80000344 -150.65647888 260.31828308 C-147.13553886 255.78388077 -143.52599344 251.35713224 -139.78147888 247.00578308 C-133.77363222 240.00257273 -128.22740732 232.66516366 -122.66722107 225.30509949 C-121.32609044 223.54134366 -119.97037774 221.79123033 -118.60179138 220.04875183 C-88.7391206 181.91265259 -54.72608325 133.82888264 -60.05271912 82.97892761 C-62.20668995 65.49297585 -68.4036832 49.67261277 -80.15647888 36.31828308 C-80.82292419 35.55773621 -81.48936951 34.79718933 -82.17601013 34.01359558 C-93.50092568 21.89287516 -108.38583821 16.02776312 -124.81272888 15.11515808 C-145.26247781 14.8657709 -163.96183119 20.09669165 -179.15647888 34.31828308 Z " fill="#FFFFFF" transform="translate(604.1564788818359,609.6817169189453)"/>
<path d="M0 0 C11.23927858 6.82523665 18.06905795 17.98179896 24.7578125 28.93359375 C34.02797596 46.3066901 34.02797596 46.3066901 48.7578125 57.93359375 C74.24403581 56.00865241 104.11925364 33.74639375 126.01953125 21.70581055 C134.59897325 16.99477766 143.2377243 12.39763367 151.8828125 7.80859375 C152.59456635 7.43052582 153.30632019 7.05245789 154.03964233 6.66293335 C156.07291928 5.58315704 158.10664996 4.5042419 160.140625 3.42578125 C161.05478432 2.94065315 161.05478432 2.94065315 161.9874115 2.44572449 C163.57563639 1.60473289 165.16659641 0.76891197 166.7578125 -0.06640625 C167.83264893 -0.67331299 167.83264893 -0.67331299 168.92919922 -1.29248047 C172.18699627 -2.67128109 175.45020263 -1.9462947 178.7578125 -1.06640625 C181.8203125 0.62109375 181.8203125 0.62109375 184.7578125 2.93359375 C185.27730469 3.31 185.79679687 3.68640625 186.33203125 4.07421875 C205.88307395 19.20462942 218.43568053 47.70739 222.32437527 71.48725879 C223.08033208 77.49800312 223.03443029 83.48577935 223.01609802 89.53614807 C223.01895882 90.97664565 223.02270015 92.41714169 223.02723652 93.85763496 C223.03714458 97.78441974 223.03486361 101.71111442 223.03050959 105.63790572 C223.02801975 109.88555217 223.03711925 114.13317574 223.04489136 118.3808136 C223.05690556 125.7339423 223.06204269 133.08704939 223.06277275 140.44018745 C223.06410263 151.09211979 223.07925201 161.74399997 223.09826792 172.39591383 C223.12907643 189.70770237 223.15325553 207.01949223 223.17114258 224.33129883 C223.17221526 225.36624408 223.17328794 226.40118934 223.17439312 227.46749657 C223.18620508 239.0055719 223.19641207 250.54364777 223.20483398 262.08172607 C223.20790788 266.26224774 223.21099669 270.44276938 223.21411133 274.62329102 C223.21525934 276.17062068 223.21525934 276.17062068 223.21643054 277.74920953 C223.22954225 294.99030228 223.25422347 312.23135729 223.28785473 329.47242206 C223.30806947 340.08791092 223.31844455 350.70331884 223.31586552 361.31882709 C223.31482519 368.60279768 223.32455121 375.88670454 223.34250455 383.17065287 C223.35248185 387.36341133 223.3577514 391.55602866 223.34973717 395.74879456 C223.30745421 420.27187633 224.30000871 441.90807461 234.78515625 464.484375 C235.60608765 466.27101563 235.60608765 466.27101563 236.44360352 468.09375 C237.54710984 470.495205 238.67939093 472.87459482 239.83178711 475.25390625 C242.81631615 481.67372125 245.22007812 486.97340922 242.7578125 493.93359375 C241.0078125 496.90234375 241.0078125 496.90234375 238.7578125 499.43359375 C237.94054688 500.35914063 237.12328125 501.2846875 236.28125 502.23828125 C235.44851563 503.12773438 234.61578125 504.0171875 233.7578125 504.93359375 C233.02820312 505.71992187 232.29859375 506.50625 231.546875 507.31640625 C226.50717875 512.538041 221.04356066 517.12219728 215.37109375 521.63671875 C213.61048593 523.05202576 211.87086274 524.49068412 210.1328125 525.93359375 C200.31994596 534.05369135 190.19800161 541.63934397 179.7578125 548.93359375 C179.0776709 549.40990234 178.3975293 549.88621094 177.69677734 550.37695312 C156.4285208 565.17861584 156.4285208 565.17861584 149.65625 564.7265625 C141.31113164 562.44346408 136.14264142 555.22359215 131.07958984 548.63818359 C129.63630771 546.7768988 128.16097372 544.94369361 126.68359375 543.109375 C108.53347571 520.31796986 95.22010729 495.1518728 95.37927246 465.44961548 C95.37597345 464.03427607 95.37135398 462.61893925 95.3655448 461.20360792 C95.35343414 457.35112449 95.35965097 453.49886365 95.36904979 449.6463809 C95.37588817 445.47721527 95.36529213 441.30808871 95.35676575 437.13893127 C95.34423622 429.92439709 95.34221376 422.70992285 95.34712219 415.4953804 C95.35395119 405.04822213 95.34137566 394.60115362 95.32361501 384.15401141 C95.29500373 367.17982665 95.27746292 350.20565162 95.26904297 333.23144531 C95.26853579 332.21695062 95.26802861 331.20245593 95.26750606 330.15721898 C95.26397948 322.95767736 95.26085005 315.75813559 95.2578125 308.55859375 C95.25434367 300.33789048 95.25069429 292.11718735 95.24658203 283.89648438 C95.24607942 282.88384134 95.2455768 281.87119831 95.24505895 280.82786913 C95.23630175 263.91673096 95.21583982 247.00562615 95.18709993 230.09451044 C95.16996462 219.67931587 95.16331503 209.26421594 95.17040598 198.84900914 C95.17459884 191.70804979 95.16819206 184.56714996 95.15360725 177.42620446 C95.14558458 173.31291495 95.14237824 169.19977327 95.15242958 165.08648491 C95.16157736 161.31125722 95.15666709 157.53630269 95.14121515 153.76109795 C95.13658072 151.76959169 95.14653438 149.77806736 95.15724325 147.7865845 C95.03928717 128.9194704 90.05036292 105.77949963 76.60546875 91.67578125 C71.39533204 87.02151808 68.30876657 85.53470443 61.28515625 85.67578125 C57.32623434 86.079628 55.64398122 87.1756992 52.7578125 89.93359375 C50.2103293 93.48283567 47.92243221 97.13993034 45.7578125 100.93359375 C45.40195057 101.50261988 45.04608863 102.07164601 44.679443 102.65791535 C43.39281594 105.83483865 43.5022084 108.57562689 43.49609947 112.00069809 C43.49210341 112.71611879 43.48810735 113.43153949 43.48399019 114.1686396 C43.47297629 116.57829568 43.47622275 118.98772364 43.4793396 121.3973999 C43.47433898 123.13739573 43.46846388 124.87738923 43.46178687 126.61737943 C43.44594449 131.40841644 43.44255386 136.19939487 43.44113827 140.99045491 C43.4374516 146.15336744 43.42229982 151.31624756 43.40852356 156.47914124 C43.38622381 165.42742322 43.37122687 174.37569372 43.36115646 183.3239975 C43.34658576 196.26182149 43.32105348 209.19960547 43.29282518 222.13740602 C43.2473279 243.12691244 43.21072524 264.11642462 43.1796875 285.10595703 C43.14951397 305.49821991 43.11516922 325.89046872 43.07519531 346.28271484 C43.07273376 347.53918909 43.07027222 348.79566333 43.06773607 350.09021255 C43.05536171 356.39342415 43.04290513 362.69663558 43.03040767 368.99984694 C42.92679591 421.31107925 42.83924061 473.62232127 42.7578125 525.93359375 C-1.7921875 525.93359375 -46.3421875 525.93359375 -92.2421875 525.93359375 C-92.24835083 506.53433105 -92.24835083 506.53433105 -92.25463867 486.74316406 C-92.27129792 445.35880632 -92.31246316 403.97450541 -92.36904312 362.59018375 C-92.37780983 356.16152249 -92.38635964 349.73286095 -92.39477539 343.30419922 C-92.39645445 342.02437321 -92.39813352 340.74454719 -92.39986346 339.42593858 C-92.42653026 318.70559072 -92.43562831 297.98527053 -92.43822893 277.26490727 C-92.44128882 256.00249731 -92.46323974 234.74016731 -92.50271207 213.47779346 C-92.52647194 200.35869768 -92.53551251 187.23976155 -92.52570061 174.12064722 C-92.52038321 165.12329353 -92.53342233 156.12608283 -92.5608504 147.12876984 C-92.57613232 141.9384467 -92.58336463 136.74844363 -92.56878471 131.55811119 C-92.55560261 126.80166672 -92.56558797 122.04584161 -92.59362523 117.28946671 C-92.59971933 115.57325726 -92.59747482 113.8569925 -92.58581676 112.14081183 C-92.46625856 93.03863071 -100.14076229 79.91414792 -111.95385742 65.34790039 C-116.07753233 60.1765848 -116.07753233 60.1765848 -116.2421875 56.93359375 C-114.6299171 54.95726229 -113.18805679 53.5371776 -111.2421875 51.93359375 C-110.71753906 51.49273438 -110.19289063 51.051875 -109.65234375 50.59765625 C-97.72834431 41.15238754 -83.55344778 34.19650279 -70.2421875 26.93359375 C-69.25750488 26.39541016 -68.27282227 25.85722656 -67.25830078 25.30273438 C-55.68456089 18.98881247 -44.07241479 12.75466115 -32.3046875 6.80859375 C-31.02029785 6.15322632 -31.02029785 6.15322632 -29.70996094 5.48461914 C-9.59453312 -4.56325356 -9.59453312 -4.56325356 0 0 Z " fill="#FFFFFF" transform="translate(1689.2421875,744.06640625)"/>
<path d="M0 0 C20.11129826 10.22988067 37.59713794 24.9991951 54.01171875 40.3359375 C56.45479502 42.60579714 58.9475745 44.79827483 61.46875 46.98046875 C65.58529896 50.63057421 69.16008608 54.55210624 72.65625 58.79296875 C73.29304688 59.54191406 73.92984375 60.29085937 74.5859375 61.0625 C84.37758266 72.85438396 94.77607948 87.623406 94.78374195 103.51469421 C94.7867496 104.68916233 94.78975725 105.86363045 94.79285604 107.07368851 C94.79110567 108.36510128 94.78935529 109.65651405 94.78755188 110.98706055 C94.78925403 112.37201878 94.79140371 113.75697653 94.79396313 115.14193344 C94.7985617 118.15589653 94.79998069 121.16983907 94.79899788 124.18380547 C94.79740571 129.08788231 94.80260606 133.99193876 94.80862427 138.89601135 C94.81673999 146.01738478 94.82168212 153.13875463 94.82491493 160.26013184 C94.8304124 171.52141832 94.84731155 182.78267453 94.86625671 194.04394531 C94.87261368 197.89724726 94.87892211 201.75054929 94.88523388 205.60385132 C94.88681764 206.56689521 94.8884014 207.5299391 94.89003316 208.52216613 C94.90797344 219.48726873 94.92419719 230.45237348 94.93920898 241.41748047 C94.94127279 242.92112164 94.94127279 242.92112164 94.94337829 244.4551394 C94.96529244 260.68745805 94.97606053 276.9197689 94.98357973 293.15209973 C94.99165757 309.82226218 95.01497081 326.49235791 95.0515334 343.16248226 C95.07353319 353.44120939 95.08323076 363.71979921 95.07703307 373.99854869 C95.0738526 381.04849175 95.08522732 388.0983178 95.10792748 395.14822465 C95.12056472 399.21250747 95.12680233 403.27652949 95.11551094 407.34082222 C95.10528897 411.06823027 95.11370091 414.7951337 95.1363739 418.52248251 C95.14367437 420.49575117 95.13149444 422.46906295 95.11841375 424.44230175 C95.23089709 436.85630647 99.39361625 446.84838912 104.78125 457.85546875 C105.22339844 458.77779297 105.66554688 459.70011719 106.12109375 460.65039062 C107.82750917 464.1843718 109.47597714 467.52255946 111.65625 470.79296875 C111.27342959 476.76496716 107.49232761 479.56807156 103.2791748 483.38000488 C92.19840968 493.02722988 79.86282331 501.27451639 67.64501953 509.38769531 C65.15093131 511.04650619 62.66712408 512.71996686 60.18359375 514.39453125 C52.43563726 519.58416417 44.61151827 524.59388434 36.4375 529.08984375 C35.76891968 529.47013733 35.10033936 529.85043091 34.41149902 530.24224854 C29.59671245 532.79803137 26.10097828 533.24267664 20.65625 532.79296875 C7.21258916 528.31174847 -1.61190122 514.48499375 -8.34375 502.79296875 C-8.87742187 501.86790527 -9.41109375 500.9428418 -9.9609375 499.98974609 C-20.32520515 481.94728349 -20.32520515 481.94728349 -23.34375 475.79296875 C-28.94994427 476.38071492 -33.52955017 478.40797085 -38.59375 480.73046875 C-39.47490479 481.13233398 -40.35605957 481.53419922 -41.26391602 481.94824219 C-54.79037341 488.217517 -67.45773152 495.78398062 -80.08544922 503.67895508 C-86.96389896 507.97027701 -93.90991965 512.1342566 -100.90625 516.23046875 C-102.34991943 517.0807666 -102.34991943 517.0807666 -103.82275391 517.94824219 C-108.72117599 520.80249398 -113.66646264 523.56273315 -118.68359375 526.203125 C-119.62452881 526.70078369 -120.56546387 527.19844238 -121.53491211 527.71118164 C-124.71104038 528.93442583 -126.96705754 529.10307018 -130.34375 528.79296875 C-139.88785998 523.60595246 -146.81527913 515.26519146 -153.34375 506.79296875 C-153.9919873 505.95717285 -153.9919873 505.95717285 -154.65332031 505.10449219 C-175.94761059 477.48486118 -189.06263066 446.07132543 -195.34375 411.79296875 C-195.50746094 410.92414063 -195.67117188 410.0553125 -195.83984375 409.16015625 C-201.12866735 379.52526038 -201.09444989 345.34586508 -195.34375 315.79296875 C-195.20453125 315.02581543 -195.0653125 314.25866211 -194.921875 313.46826172 C-186.39777556 267.5427028 -148.1399007 218.83981263 -110.33886719 192.39013672 C-95.83267768 182.46214177 -80.68495084 174.75190461 -64.59375 167.73046875 C-44.92035272 159.30788092 -44.92035272 159.30788092 -29.28125 145.10546875 C-27.52177486 138.88865661 -29.34733522 132.52579381 -31.96875 126.73046875 C-42.22712286 108.44380408 -62.1477604 96.89544825 -79.90625 86.79296875 C-80.56093262 86.41897949 -81.21561523 86.04499023 -81.89013672 85.65966797 C-92.2122574 79.91747303 -99.0873878 80.51146133 -110.234375 83.60546875 C-112.69008531 84.32588055 -115.14319177 85.05522175 -117.59375 85.79296875 C-120.0564091 86.52511064 -122.51992352 87.25438304 -124.984375 87.98046875 C-126.06235352 88.30402344 -127.14033203 88.62757813 -128.25097656 88.9609375 C-144.79817364 93.41253583 -162.93428038 92.24063842 -177.90625 83.85546875 C-184.22531594 79.7552334 -187.48299308 75.04722398 -189.34375 67.79296875 C-189.92855569 61.65250901 -189.08210082 56.36864692 -186.34375 50.79296875 C-182.85224229 47.01050206 -179.37753358 45.67188334 -174.34375 44.79296875 C-166.56980098 44.56319686 -159.25657181 46.48073051 -151.78125 48.35546875 C-121.87042451 55.74163272 -94.47767961 38.57168587 -68.20214844 25.66233826 C-63.39959134 23.30405475 -58.58339987 20.97515251 -53.76171875 18.65625 C-51.58971708 17.61011505 -49.41786031 16.56367996 -47.24606323 15.51712036 C-45.81711356 14.82887343 -44.3878556 14.14126619 -42.95828247 13.45431519 C-33.27528281 8.80049463 -33.27528281 8.80049463 -23.796875 3.74609375 C-23.02118164 3.31208252 -22.24548828 2.87807129 -21.44628906 2.4309082 C-20.11791844 1.6724783 -18.80027562 0.89464532 -17.49902344 0.09057617 C-11.49262724 -3.36762607 -6.22587169 -2.24742331 0 0 Z M-58.34375 216.79296875 C-79.7078074 239.58129664 -96.50731043 277.28269659 -96.34375 308.79296875 C-94.96463677 347.31427293 -83.78694868 398.08669398 -56.34375 426.79296875 C-55.74820313 427.416875 -55.15265625 428.04078125 -54.5390625 428.68359375 C-50.69537601 432.33936668 -47.81885426 433.88422049 -42.34375 433.79296875 C-35.87276567 432.7892177 -35.87276567 432.7892177 -30.34375 429.79296875 C-30.27307645 427.26159839 -30.26822969 424.75888389 -30.30615234 422.22827148 C-30.31417625 421.42834306 -30.32220016 420.62841463 -30.33046722 419.80424595 C-30.35872051 417.11160825 -30.39422928 414.41911426 -30.4296875 411.7265625 C-30.451205 409.81714347 -30.4722834 407.90771944 -30.49295044 405.99829102 C-30.5502733 400.82216743 -30.61390029 395.64613838 -30.67874146 390.47010422 C-30.74559958 385.05636202 -30.80703779 379.64255821 -30.86914062 374.22875977 C-30.98423381 364.27147988 -31.10458293 354.31427109 -31.2270546 344.35707951 C-31.33539326 335.52971777 -31.43849518 326.70230179 -31.54029846 317.87486267 C-31.99055935 278.84428874 -32.54020032 239.81809552 -33.34375 200.79296875 C-41.31241924 200.79296875 -53.1324781 211.8283372 -58.34375 216.79296875 Z " fill="#FFFFFF" transform="translate(927.34375,738.20703125)"/>
<path d="M0 0 C2.20109605 1.70010031 4.36174416 3.41226197 6.5 5.1875 C7.00950195 5.60821777 7.51900391 6.02893555 8.04394531 6.46240234 C11.30190516 9.25948507 14.18107449 12.26595169 17.02734375 15.48046875 C23.0859839 22.31321876 29.58537365 28.69322808 36.0625 35.125 C37.32250102 36.37997204 38.58226824 37.63517886 39.84179688 38.890625 C42.89184853 41.92979084 45.9450262 44.96578227 49 48 C62.90275976 43.63372469 73.21949635 31.0723901 83.18359375 20.88183594 C87.73733929 16.23144615 92.31627619 11.74160559 97.26660156 7.51513672 C100.59437826 4.60637867 103.567569 1.34148213 106.60546875 -1.86328125 C110.78437333 -5.59225483 110.78437333 -5.59225483 114 -6 C117.04068851 -4.45669105 119.56513253 -2.34997575 122.1875 -0.1875 C122.94345459 0.41473389 123.69940918 1.01696777 124.47827148 1.63745117 C130.18009498 6.218085 135.70718785 10.95042371 141 16 C141.680625 16.61746094 142.36125 17.23492188 143.0625 17.87109375 C158.04688314 31.94821932 168.50249293 52.56968499 169.6875 73.125 C169.20119772 86.63508518 159.57279525 96.45766243 151 106 C149.83195871 107.35298116 148.66508309 108.70697063 147.5 110.0625 C146.33742351 111.37862433 145.17035575 112.69078849 144 114 C143.2265625 114.86625 142.453125 115.7325 141.65625 116.625 C115.30792026 145.76315289 115.30792026 145.76315289 105.8125 147.625 C99.87699755 146.30599946 95.71547395 141.96927687 91.5625 137.75 C90.84537842 137.02321045 90.84537842 137.02321045 90.11376953 136.28173828 C86.85240072 132.9498772 83.77084721 129.49630472 80.73046875 125.96484375 C78.76680481 123.73522081 76.75211913 121.57418263 74.6875 119.4375 C74.03136719 118.75558594 73.37523437 118.07367187 72.69921875 117.37109375 C68.74677595 113.89912156 64.30984475 111.01689132 60 108 C59.67 246.93 59.34 385.86 59 529 C14.45 529 -30.1 529 -76 529 C-76.0093457 516.05668457 -76.01869141 503.11336914 -76.02832031 489.77783203 C-76.06102409 448.37001332 -76.11330714 406.96224007 -76.17792095 365.55445934 C-76.18793848 359.12322052 -76.1977826 352.69198144 -76.20751953 346.26074219 C-76.2094609 344.98039155 -76.21140228 343.70004092 -76.21340248 342.38089179 C-76.24442844 321.64626642 -76.2614048 300.91165213 -76.27319422 280.17700793 C-76.28560268 258.90331459 -76.31309722 237.62967937 -76.35461307 216.35602272 C-76.37975712 203.22773134 -76.39311661 190.09953634 -76.39142957 176.97122054 C-76.39139983 167.97015931 -76.40601622 158.9691963 -76.43216428 149.96817334 C-76.44682019 144.77408963 -76.45500453 139.58020737 -76.44580269 134.38610649 C-76.43751694 129.62860778 -76.44766759 124.87151384 -76.47233662 120.11407517 C-76.47802122 118.39520961 -76.47700328 116.6763057 -76.46851245 114.95745172 C-76.41140083 102.30992021 -78.43425527 93.02128453 -85.6875 82.5 C-86.33561646 81.54407959 -86.33561646 81.54407959 -86.99682617 80.56884766 C-91.67813742 73.80078964 -96.99149853 67.67892693 -103.125 62.1875 C-105 60 -105 60 -104.90234375 57.69921875 C-102.15457977 49.47971696 -92.56013405 42.37316311 -86 37 C-84.87108436 36.05860501 -83.7421791 35.11719757 -82.61328125 34.17578125 C-22.35697425 -15.72625673 -22.35697425 -15.72625673 0 0 Z " fill="#FFFFFF" transform="translate(1389,741)"/>
<path d="M0 0 C0.35359935 16.72029573 -0.64959258 33.39734437 -1.50711477 50.08829737 C-1.72925797 54.43187268 -1.94610376 58.77571306 -2.16362 63.11952209 C-2.54048276 70.6314679 -2.92059849 78.14324326 -3.30296135 85.65491104 C-3.85708315 96.54132667 -4.40594702 107.42800262 -4.95354683 118.31474803 C-5.84408456 136.01697299 -6.7384869 153.7190004 -7.63549805 171.42089844 C-8.50327721 188.54614497 -9.3697671 205.67145571 -10.23413086 222.796875 C-10.28733138 223.85090771 -10.34053189 224.90494043 -10.39534455 225.99091353 C-10.97742033 237.52398563 -11.55913949 249.0570757 -12.14062595 260.59017754 C-12.29539175 263.65968213 -12.4501576 266.72918672 -12.60492384 269.79869129 C-12.70702258 271.82370579 -12.80911482 273.84872061 -12.91120047 275.87373577 C-13.50870842 287.72576985 -14.10727524 299.57774937 -14.70780147 311.42963092 C-15.08498491 318.8737769 -15.46151454 326.31795573 -15.83755486 333.76215954 C-16.05382174 338.04264976 -16.27044276 342.32312128 -16.48803711 346.60354424 C-16.72527753 351.27096908 -16.96114842 355.93846187 -17.19639587 360.60598755 C-17.23304937 361.3303707 -17.26970288 362.05475385 -17.30746709 362.80108801 C-17.66688842 369.92125764 -18.01083902 377.04118476 -18.28711128 384.16518784 C-18.32958097 385.25998392 -18.37205066 386.35478 -18.41580731 387.48275173 C-18.48970791 389.4506096 -18.55977748 391.41861806 -18.6246509 393.38679421 C-19.25882338 410.61702677 -21.69728924 430.26929952 -33 444 C-33.51175781 444.63421875 -34.02351563 445.2684375 -34.55078125 445.921875 C-40.18534546 452.21537392 -48.51772133 456.48067682 -57 457 C-70.37450683 457.57814871 -80.91955192 455.74543691 -91.125 446.5625 C-104.65549246 432.08864651 -106.70350678 410.55425674 -107.56567383 391.66577148 C-107.61507142 390.63894571 -107.66446901 389.61211994 -107.7153635 388.55417824 C-107.82389126 386.28966865 -107.93098598 384.02509004 -108.03684616 381.76045418 C-108.21343079 377.98424148 -108.39386362 374.20822771 -108.57510376 370.43223572 C-108.84587082 364.78528353 -109.11479933 359.13824646 -109.38253784 353.4911499 C-110.09802928 338.40603634 -110.82381556 323.32141714 -111.55224252 308.23692322 C-111.63761199 306.46900091 -111.72294628 304.7010769 -111.80824637 302.93315125 C-113.43398336 269.24314975 -115.12043162 235.55628698 -116.82328267 201.87010581 C-117.06368812 197.11429046 -117.30391828 192.35846628 -117.54403496 187.60263634 C-118.81688003 162.39272303 -120.09045099 137.18284793 -121.37330198 111.97344155 C-121.93822091 100.87148198 -122.50062091 89.76939646 -123.06081104 78.66719717 C-123.42841716 71.38454575 -123.79901435 64.10205517 -124.17195851 56.81967527 C-124.40057806 52.34083899 -124.62623751 47.86185719 -124.85105932 43.38282883 C-124.95471595 41.32936412 -125.05956481 39.27595916 -125.1657511 37.22262371 C-125.7211746 26.46959562 -126.16196454 15.77074644 -126 5 C-111.49130718 4.34453511 -96.98246485 3.69247131 -82.47344685 3.04424286 C-75.73540004 2.74314372 -68.99740431 2.44097885 -62.25952148 2.13623047 C-55.74978352 1.84191139 -49.2399233 1.55044658 -42.72997093 1.26091003 C-40.25381147 1.15028758 -37.77769672 1.03865929 -35.30163002 0.92597961 C-31.81749425 0.76760217 -28.33321259 0.61289343 -24.84887695 0.45898438 C-23.33403465 0.38885384 -23.33403465 0.38885384 -21.78858948 0.31730652 C-14.52261111 0.00173435 -7.27228012 -0.04834679 0 0 Z " fill="#FFFFFF" transform="translate(1229,852)"/>
<path d="M0 0 C3.6495187 1.63800839 6.2132282 3.79531401 9.04296875 6.546875 C9.59033691 7.06604492 10.13770508 7.58521484 10.70166016 8.12011719 C12.53768864 9.87355261 14.35474288 11.64487649 16.16796875 13.421875 C16.8434375 14.08219727 17.51890625 14.74251953 18.21484375 15.42285156 C20.3311474 17.49898463 22.43930779 19.58293525 24.54296875 21.671875 C25.52305908 22.64471436 25.52305908 22.64471436 26.52294922 23.63720703 C30.93975253 28.06974851 35.08195377 32.68504381 39.16796875 37.421875 C40.15194979 38.52885367 41.13754518 39.63440017 42.125 40.73828125 C69.64356154 71.83179031 81.88972462 108.01333772 80.16796875 149.421875 C78.15297112 174.11573851 66.72731365 195.01523247 52.16796875 214.421875 C51.61351074 215.16179687 51.05905273 215.90171875 50.48779297 216.6640625 C46.75988846 221.61888585 42.98067824 226.5320916 39.16796875 231.421875 C38.44996094 232.34484375 37.73195313 233.2678125 36.9921875 234.21875 C8.7858463 269.95846183 8.7858463 269.95846183 -3.14453125 271.984375 C-13.85505062 270.35056696 -21.22492192 263.00296691 -29 256.04785156 C-31.40278448 253.91531629 -33.84694656 251.83395002 -36.29516602 249.75390625 C-38.62256444 247.77471131 -40.93656111 245.78022295 -43.24951172 243.78417969 C-44.70040476 242.53518506 -46.15845038 241.29451176 -47.6171875 240.0546875 C-53.7709419 234.70938615 -58.88083057 228.8889324 -63.83203125 222.421875 C-64.52296875 221.52339844 -65.21390625 220.62492188 -65.92578125 219.69921875 C-78.18235062 203.31784238 -85.80811784 185.66999918 -88.83203125 165.421875 C-88.96222656 164.58011719 -89.09242187 163.73835937 -89.2265625 162.87109375 C-93.71709137 127.24623138 -82.35046349 93.8043122 -60.7668457 65.74829102 C-58.37723772 62.6765826 -55.9639961 59.62423049 -53.54248047 56.57763672 C-51.95404677 54.57565705 -50.37662582 52.56572512 -48.8046875 50.55078125 C-43.24521121 43.42632294 -37.60809137 36.37272701 -31.83203125 29.421875 C-31.40954102 28.91301758 -30.98705078 28.40416016 -30.55175781 27.87988281 C-6.28230865 -1.28245749 -6.28230865 -1.28245749 0 0 Z M-10.83203125 117.421875 C-13.96794078 120.9829926 -16.89686219 124.69467619 -19.83203125 128.421875 C-20.75554407 129.56848733 -21.68005538 130.71429603 -22.60546875 131.859375 C-37.40812774 150.27516159 -45.58202465 166.45602527 -43.83203125 190.421875 C-40.53661931 208.98916742 -27.59698465 221.58150475 -13.83203125 233.421875 C-13.16945313 234.00710938 -12.506875 234.59234375 -11.82421875 235.1953125 C-8.98260555 237.50173398 -7.05698466 238.40142469 -3.39453125 238.734375 C10.48817945 233.61969211 24.92384099 209.56620872 31.10546875 196.734375 C37.12278631 182.35506096 36.27036571 167.98936929 31.16796875 153.421875 C25.46632232 139.52226543 16.62108201 129.745456 6.23046875 119.234375 C5.09279053 118.08231567 5.09279053 118.08231567 3.93212891 116.90698242 C3.21718262 116.19646729 2.50223633 115.48595215 1.765625 114.75390625 C1.12117432 114.11171143 0.47672363 113.4695166 -0.18725586 112.80786133 C-4.33710522 109.31094953 -7.81667266 114.45264044 -10.83203125 117.421875 Z " fill="#FFFFFF" transform="translate(1168.83203125,328.578125)"/>
<path d="M0 0 C2.97464014 2.0471858 5.46899186 4.43298158 8 7 C8.55171875 7.52980469 9.1034375 8.05960938 9.671875 8.60546875 C30.67751827 30.46134044 45.95945648 67.13108263 54 96 C54.19505127 96.69536865 54.39010254 97.3907373 54.59106445 98.10717773 C56.14088475 104.2387782 56.26747191 110.13655549 56.1875 116.4375 C56.1865332 117.92540039 56.1865332 117.92540039 56.18554688 119.44335938 C56.14091615 126.7181677 56.14091615 126.7181677 55 129 C37.54584265 129.02332844 20.09169015 129.0409789 2.63752079 129.05181217 C-5.46618609 129.05697525 -13.56988331 129.06401816 -21.67358398 129.07543945 C-28.73422122 129.08538594 -35.79485146 129.09185334 -42.85549551 129.09408849 C-46.59634458 129.09539566 -50.33717362 129.09848189 -54.07801628 129.10573006 C-58.24725113 129.11374324 -62.41645084 129.11399116 -66.58569336 129.11352539 C-68.45979889 129.1189183 -68.45979889 129.1189183 -70.37176514 129.12442017 C-71.50063644 129.1230455 -72.62950775 129.12167084 -73.79258728 129.12025452 C-74.77982757 129.12117631 -75.76706785 129.1220981 -76.78422451 129.12304783 C-79 129 -79 129 -80 128 C-80.09498316 126.10877981 -80.1840051 124.21702345 -80.23901367 122.32421875 C-80.47757979 114.77887169 -80.94453963 108.5572054 -85 102 C-85.37640625 101.33742188 -85.7528125 100.67484375 -86.140625 99.9921875 C-88.52868208 96.09361238 -91.27514757 92.64515567 -94.3125 89.23828125 C-95.20304077 88.23788818 -95.20304077 88.23788818 -96.11157227 87.21728516 C-97.31813196 85.87601797 -98.53725685 84.54593683 -99.76928711 83.22802734 C-100.3288208 82.61008301 -100.88835449 81.99213867 -101.46484375 81.35546875 C-102.23235962 80.53018677 -102.23235962 80.53018677 -103.01538086 79.68823242 C-104 78 -104 78 -103.74267578 75.89501953 C-102.83896556 73.58910278 -101.72671982 72.39520639 -99.9375 70.6875 C-99.298125 70.07648438 -98.65875 69.46546875 -98 68.8359375 C-94.72009753 65.82508953 -91.38275804 62.89480753 -88 60 C-86.95692878 59.10428598 -85.91396855 58.2084427 -84.87109375 57.3125 C-82.49026936 55.26850161 -80.10716084 53.22720358 -77.72265625 51.1875 C-75.26836295 49.08768 -72.8179562 46.98347363 -70.37109375 44.875 C-63.33000655 38.811601 -56.23174304 32.8361435 -49 27 C-48.44231934 26.54657227 -47.88463867 26.09314453 -47.31005859 25.62597656 C-10.4144567 -4.36735281 -10.4144567 -4.36735281 0 0 Z " fill="#FFFFFF" transform="translate(1178,643)"/>
<path d="M0 0 C43.56 0 87.12 0 132 0 C132 21.375 132 21.375 131 29 C116.56044065 29.656586 102.12068419 30.30867863 87.68069553 30.95575714 C80.97412827 31.25636647 74.2676344 31.5584594 67.5612793 31.86376953 C61.07749373 32.15889431 54.59354821 32.45024629 48.1094799 32.73908997 C45.64777632 32.8493943 43.18613109 32.96100995 40.72455025 33.07402039 C27.47447203 33.68143212 14.2652288 34.18273363 1 34 C-0.05692939 22.60026156 0 11.52292895 0 0 Z " fill="#FFFFFF" transform="translate(1100,791)"/>
<path d="M0 0 C12.25497084 6.20706315 22.23723281 21.88461227 26.70703125 34.37109375 C30.38512869 47.35034859 28.96637671 59.21999881 22.66796875 71.15625 C18.89856928 77.33596268 14.40525942 82.87900982 9.70703125 88.37109375 C8.89363281 89.3353125 8.08023437 90.29953125 7.2421875 91.29296875 C2.97451471 95.9910564 2.97451471 95.9910564 0.70703125 97.37109375 C-7.3363711 97.32518392 -11.63174957 92.49713121 -17.29296875 87.37109375 C-17.96972656 86.77683594 -18.64648438 86.18257813 -19.34375 85.5703125 C-27.837958 77.67879775 -32.56230552 67.68238797 -33.57421875 56.171875 C-33.78372304 48.79557826 -32.79511453 42.30686625 -30.29296875 35.37109375 C-30.0609375 34.72140625 -29.82890625 34.07171875 -29.58984375 33.40234375 C-26.35226087 25.91146571 -20.43728016 19.62386612 -15.29296875 13.37109375 C-14.78121094 12.7481543 -14.26945312 12.12521484 -13.7421875 11.48339844 C-12.24530149 9.6691347 -10.74056183 7.86187449 -9.23046875 6.05859375 C-8.76568115 5.50147705 -8.30089355 4.94436035 -7.82202148 4.37036133 C-3.33992731 -0.91606184 -3.33992731 -0.91606184 0 0 Z " fill="#FFFFFF" transform="translate(1216.29296875,205.62890625)"/>
<path d="M0 0 C11.86894226 5.64295325 22.89551076 19.90859059 27.375 31.875 C31.31756887 43.63414019 32.06628321 57.12450868 26.94140625 68.64453125 C21.22502526 78.52455393 12.70636631 91.65561532 3 98 C-0.6694135 98.55552874 -2.38547658 98.37751972 -5.5625 96.42578125 C-6.366875 95.72839844 -7.17125 95.03101563 -8 94.3125 C-8.804375 93.62800781 -9.60875 92.94351563 -10.4375 92.23828125 C-11.283125 91.49964844 -12.12875 90.76101563 -13 90 C-13.99644531 89.21367187 -14.99289062 88.42734375 -16.01953125 87.6171875 C-24.89838957 79.82054914 -30.40712905 69.73772598 -31.3046875 58.0234375 C-32.18241214 37.27552109 -21.94660423 24.21049131 -9 9 C-8.32324219 8.19949219 -7.64648438 7.39898437 -6.94921875 6.57421875 C-2.29257387 1.14628694 -2.29257387 1.14628694 0 0 Z " fill="#FFFFFF" transform="translate(1115,219)"/>
<path d="M0 0 C5.61083375 0.28989308 8.18190089 3.67214628 11.8515625 7.54296875 C18.86828482 15.56754755 22.46705318 24.32782934 22 35.125 C20.61810295 46.41291695 12.35801775 56.62822834 4 64 C-1.12667312 64.40209201 -3.64901848 62.81055789 -7.5625 59.5625 C-13.77011651 53.6732228 -18.52331558 46.76710004 -19.23828125 38.1171875 C-19.60256262 22.20384328 -12.13042158 13.47555492 -2 2 C-1.34 1.34 -0.68 0.68 0 0 Z " fill="#FFFFFF" transform="translate(1163,110)"/>
</svg>
