<?xml version="1.0" encoding="UTF-8"?>
<svg id="Layer_1" data-name="Layer 1" xmlns="http://www.w3.org/2000/svg" viewBox="0 0 501 351.32">
  <defs>
    <style>
      .cls-1 {
        fill: #fff;
      }
    </style>
  </defs>
  <path class="cls-1" d="M99.47,240.19c1.07-1.53,4.84-6.53,11.29-14.97,7.22-9.21,13.21-17.12,17.97-23.73,8.75-11.21,17.58-22.5,26.49-33.86,10.29-13.36,15.43-21.19,15.43-23.5,0-.61-.54-1.46-1.61-2.53-1.08-1.07-2-1.61-2.76-1.61-.92,0-2.38,1-4.38,3-4.15,3.99-7.6,5.99-10.37,5.99-7.22-2.61-14.17-5.14-20.85-7.6-6.68-2.45-12.86-3.68-18.54-3.68-20.73,0-38.55,8.69-53.44,26.07-14.13,16.46-21.19,35.06-21.19,55.82,0,13.53,1.99,25.3,5.99,35.29,3.53,9.23,7.83,16.92,12.9,23.06,0,2.31-2.61,6.85-7.83,13.61-5.22,6.77-7.83,9.7-7.83,10.93.31.77.61,1.54.92,2.31h8.06c.77-.78,2.77-2.2,5.99-6.4,5.99-7.77,9.29-11.66,9.9-11.66,6.3,4.15,12.67,8.29,19.12,12.44,7.37,3.69,17.74,5.53,31.1,5.53s24.19-3.38,33.86-10.14c12.44-8.75,18.66-16.66,18.66-23.73,0-1.53-1.77-2.99-5.3-4.38-5.22-1.99-8.98-3.76-11.29-5.3h-4.61c0,7.83-2.46,14.97-7.37,21.42-5.53,7.22-12.36,10.83-20.5,10.83s-15.7-3.69-21.77-11.06c-6.07-7.37-9.1-15.58-9.1-24.65,0-2.15,1.15-4.68,3.46-7.6,4.76-6.3,7.29-9.59,7.6-9.9ZM87.04,235.36c-.15-1.69-.38-3.46-.69-5.3-.31-1.84-.46-3.46-.46-4.84,0-1.23.04-2.65.11-4.26.08-1.61.12-3.42.12-5.41,0-19.66,2.38-35.51,7.14-47.57,4.76-12.05,11.67-18.08,20.73-18.08,5.22,0,9.33,1.88,12.32,5.64,2.99,3.77,4.49,8.41,4.49,13.94,0,7.07-4.23,16.28-12.67,27.64-2.3,3.22-6.91,8.98-13.82,17.28-2.61,3.84-5.22,7.68-7.83,11.52-2.61,3.84-5.76,6.99-9.45,9.45Z"/>
  <path class="cls-1" d="M245.27,281.41v-78.36c0-5.07-3.84-10.91-11.52-17.51-6.76-5.84-11.37-8.76-13.82-8.76-5.99,3.09-11.9,6.02-17.74,8.79-5.84,2.78-9.98,4.16-12.44,4.16-.62,0-1.46-.15-2.53-.46-2.92-.77-4.84-1.15-5.76-1.15-2.76,0-4.15,1.46-4.15,4.38,0,2.15,1.04,3.76,3.11,4.84,2.07,1.08,4.26,1.61,6.57,1.61,1.84,0,4.22-.46,7.14-1.38,2.91-.92,4.68-1.38,5.3-1.38,1.53,0,4.68,1.65,9.44,4.95,4.76,3.3,7.14,6.57,7.14,9.79,0,2-3.22,4.38-9.67,7.14-8.14,3.38-14.59,8.14-19.35,14.28-5.68,7.37-9.1,13.05-10.25,17.05-1.15,4-1.73,9.06-1.73,15.2,0,13.52,3.61,24.8,10.83,33.86,2.92,3.69,4.99,5.53,6.22,5.53.77,0,5.14-2.46,13.13-7.37,4.45-2.76,8.37-4.68,11.75-5.76,1.84,3.38,3.22,5.84,4.15,7.37,2.77,4.46,5.3,6.68,7.6,6.68,1.07,0,4.76-2.15,11.06-6.45,6.29-4.3,9.44-6.99,9.44-8.06-1.08-1.84-1.77-3.15-2.07-3.92-1.23-2.61-1.84-4.3-1.84-5.07ZM212.1,281.43c-2.46,0-5.18-3.49-8.18-10.48-3-6.99-4.49-13.71-4.49-20.16,0-3.69,1.42-8.48,4.26-14.4,2.84-5.91,6.49-9.64,10.94-11.17l.69,55.28c-1.54.31-2.61.62-3.23.92Z"/>
  <path class="cls-1" d="M360.47,176.61c-.31,0-2.65,2.19-7.03,6.56-4.38,4.38-7.18,6.57-8.41,6.57-2.92-2.91-5.76-5.83-8.52-8.75-2.76-2.91-5.07-4.38-6.91-4.38-2.3,0-6.26,2.15-11.86,6.45-5.61,4.3-8.79,7.3-9.56,8.98,1.53,1.07,3.11,2.84,4.72,5.29,1.61,2.46,2.42,4.37,2.42,5.75v101.69h32.02v-101.67c2.43,1.54,4.87,3.76,7.31,6.68,1.83,2.15,3.2,3.22,4.11,3.22,1.37,0,4.94-3.3,10.73-9.9,2.89-3.38,4.34-5.76,4.34-7.14,0-4.76-2.23-9.45-6.68-14.05-1.38-1.38-3.61-3.15-6.68-5.3Z"/>
  <path class="cls-1" d="M460.43,287.77c-1.08-2.54-1.61-6.5-1.61-8.35v-79.73c0-5.53-1.69-10.69-5.07-15.46-2.76-4-5.07-6-6.91-6-.31,0-4.92,2.42-13.82,7.26-8.91,4.84-14.28,7.26-16.12,7.26-1.07,0-3.03-2.42-5.87-7.26-2.84-4.84-5.41-7.26-7.72-7.26-1.08,0-5.61,2.15-13.59,6.45-7.99,4.3-11.98,6.91-11.98,7.83,0,.15.96,1.5,2.88,4.03,1.92,2.53,2.88,4.88,2.88,7.03v101.21h32.02v-100.06c0-.92.54-2.15,1.61-3.69,1.07-1.53,2.22-2.3,3.46-2.3,2.15,0,3.99,1.66,5.53,4.96,1.53,3.31,2.3,6.04,2.3,8.2v79.52c0,3.54,1.99,9.78,5.99,15.16,3.53,4.92,5.91,7.39,7.14,7.39,1.38,0,5.45-2.61,12.21-7.85,6.76-5.23,10.14-8.77,10.14-10.61-1.23-2.61-2.38-5.19-3.46-7.73Z"/>
  <path class="cls-1" d="M264.64,73.98c.51.45,1.04.91,1.6,1.37.56.46,1.04.7,1.44.7.48,0,1.48-.93,3-2.79.51-.62,1.21-1.55,2.11-2.79.48-.62.89-1.34,1.22-2.15.51-1.24.76-2.55.76-3.93,0-.98-.16-2-.49-3.06-.32-1.06-.72-1.99-1.2-2.81-.59-1.01-1.6-2.25-3.04-3.71-1.29-1.35-2.05-2.03-2.28-2.03-.45,0-2.24,2.05-5.36,6.16-.65.84-1.17,1.82-1.56,2.93-.39,1.11-.59,2.29-.59,3.52,0,1.74.38,3.33,1.14,4.75.76,1.42,1.84,2.69,3.25,3.82Z"/>
  <path class="cls-1" d="M285.21,66.74c.76,1.42,1.84,2.69,3.25,3.82.51.45,1.04.91,1.6,1.37.56.46,1.04.7,1.44.7.48,0,1.48-.93,3-2.79.51-.62,1.21-1.55,2.11-2.79.48-.62.89-1.34,1.22-2.15.51-1.24.76-2.55.76-3.93,0-.98-.16-2-.49-3.06-.32-1.06-.72-1.99-1.2-2.81-.59-1.01-1.6-2.25-3.04-3.71-1.29-1.35-2.05-2.03-2.28-2.03-.45,0-2.24,2.05-5.36,6.16-.65.84-1.17,1.82-1.56,2.93-.39,1.11-.59,2.29-.59,3.52,0,1.74.38,3.33,1.14,4.75Z"/>
  <path class="cls-1" d="M294.99,94.96c-1.65-2.83-4.48-6.29-8.49-10.38-3.62-3.77-5.74-5.66-6.37-5.66-1.26,0-6.25,5.74-14.97,17.22-1.81,2.36-3.26,5.09-4.36,8.19-1.1,3.11-1.65,6.39-1.65,9.85,0,4.87,1.06,9.3,3.18,13.26,2.12,3.97,5.15,7.53,9.08,10.67,1.41,1.26,2.91,2.54,4.48,3.83,1.57,1.3,2.91,1.95,4.01,1.95,1.34,0,4.13-2.59,8.37-7.78,1.41-1.73,3.38-4.32,5.9-7.78,1.33-1.73,2.48-3.73,3.42-6.01,1.41-3.46,2.12-7.11,2.12-10.97,0-2.75-.45-5.6-1.36-8.55-.9-2.95-2.02-5.56-3.36-7.84ZM288.05,126.04c-.45,1.08-.99,2.04-1.62,2.86-1.2,1.64-2.13,2.88-2.8,3.7-2.02,2.47-3.34,3.7-3.98,3.7-.52,0-1.16-.31-1.91-.93-.75-.62-1.46-1.22-2.13-1.82-1.87-1.49-3.31-3.19-4.32-5.07-1.01-1.89-1.51-3.99-1.51-6.31,0-1.64.26-3.2.78-4.68.52-1.48,1.21-2.77,2.07-3.9,4.15-5.46,6.52-8.18,7.12-8.18.3,0,1.31.9,3.03,2.69,1.91,1.94,3.25,3.59,4.04,4.93.63,1.08,1.17,2.33,1.6,3.73.43,1.4.64,2.76.64,4.06,0,1.83-.34,3.57-1.01,5.21Z"/>
  <path class="cls-1" d="M277.53,40.36c.33.3.68.6,1.05.9.37.31.68.46.94.46.31,0,.97-.61,1.97-1.83.33-.41.8-1.02,1.39-1.83.31-.41.58-.88.81-1.42.33-.81.5-1.68.5-2.58,0-.65-.11-1.32-.32-2.01-.21-.69-.48-1.31-.79-1.85-.39-.67-1.06-1.48-2-2.44-.85-.89-1.35-1.33-1.5-1.33-.3,0-1.47,1.35-3.53,4.05-.43.56-.77,1.2-1.03,1.93-.26.73-.39,1.5-.39,2.32,0,1.15.25,2.19.75,3.12.5.93,1.21,1.77,2.14,2.51Z"/>
  <polygon class="cls-1" points="264.41 197.92 295.32 196.59 295.66 189.88 264.01 189.88 264.41 197.92"/>
  <path class="cls-1" d="M281.1,154.07c-1.08,0-5.03,2.85-11.86,8.54-6.84,5.69-10.64,9.08-11.4,10.15,2.15,2.31,3.65,4.12,4.49,5.42.84,1.31,1.27,2.43,1.27,3.35l.19,3.72h32.11l.19-3.72c0-3.38-1.92-8.81-5.76-16.27-3.84-7.46-6.91-11.19-9.21-11.19Z"/>
  <path class="cls-1" d="M269.31,295.72c0,8.97,1.56,18.28,10.52,18.28s10.52-9.31,10.52-18.28l4.56-91.13-30.11,1.3,4.5,89.83Z"/>
</svg>